<svg width="354" height="71" viewBox="0 0 354 71" fill="none" xmlns="http://www.w3.org/2000/svg">
<path d="M90.3475 57.81C87.1975 57.81 84.4525 57.0675 82.1125 55.5825C79.7725 54.0525 77.95 51.96 76.645 49.305C75.34 46.65 74.6875 43.635 74.6875 40.26C74.6875 36.885 75.34 33.87 76.645 31.215C77.95 28.56 79.795 26.49 82.18 25.005C84.565 23.475 87.4 22.71 90.685 22.71C93.295 22.71 95.545 23.2275 97.435 24.2625C99.37 25.2525 100.9 26.445 102.025 27.84V9.75H111.137V57H103.443L102.97 51.1275H102.7C101.845 52.5225 100.81 53.715 99.595 54.705C98.38 55.695 97.0075 56.46 95.4775 57C93.9475 57.54 92.2375 57.81 90.3475 57.81ZM93.0475 50.3175C94.8925 50.3175 96.49 49.89 97.84 49.035C99.235 48.18 100.293 47.01 101.013 45.525C101.778 43.995 102.16 42.2175 102.16 40.1925C102.16 38.2125 101.778 36.48 101.013 34.995C100.293 33.465 99.235 32.2725 97.84 31.4175C96.445 30.5625 94.825 30.135 92.98 30.135C91.18 30.135 89.5825 30.5625 88.1875 31.4175C86.8375 32.2725 85.78 33.465 85.015 34.995C84.295 36.48 83.935 38.2125 83.935 40.1925C83.935 42.2175 84.295 43.995 85.015 45.525C85.78 47.01 86.8375 48.18 88.1875 49.035C89.5825 49.89 91.2025 50.3175 93.0475 50.3175ZM120.814 70.5L128.441 53.22H126.551L112.849 23.52H122.771L132.424 45.255H132.694L141.334 23.52H151.054L130.466 70.5H120.814ZM152.415 57V23.52H160.178L160.988 28.9875H161.258C162.338 27.0075 163.8 25.4775 165.645 24.3975C167.49 23.2725 169.808 22.71 172.598 22.71C175.388 22.71 177.75 23.3175 179.685 24.5325C181.62 25.7025 183.083 27.435 184.073 29.73C185.108 32.025 185.625 34.86 185.625 38.235V57H176.513V39.045C176.513 36.255 175.95 34.1175 174.825 32.6325C173.7 31.1475 171.923 30.405 169.493 30.405C167.963 30.405 166.59 30.7875 165.375 31.5525C164.16 32.2725 163.215 33.33 162.54 34.725C161.865 36.075 161.528 37.74 161.528 39.72V57H152.415ZM199.961 57.81C197.306 57.81 195.101 57.36 193.346 56.46C191.636 55.56 190.376 54.345 189.566 52.815C188.756 51.285 188.351 49.5975 188.351 47.7525C188.351 45.6825 188.869 43.86 189.904 42.285C190.984 40.71 192.604 39.495 194.764 38.64C196.924 37.74 199.646 37.29 202.931 37.29H211.369C211.369 35.625 211.121 34.2525 210.626 33.1725C210.176 32.0925 209.456 31.2825 208.466 30.7425C207.521 30.2025 206.306 29.9325 204.821 29.9325C203.066 29.9325 201.559 30.3375 200.299 31.1475C199.084 31.9125 198.319 33.1275 198.004 34.7925H189.161C189.431 32.3175 190.241 30.18 191.591 28.38C192.986 26.58 194.809 25.185 197.059 24.195C199.354 23.205 201.941 22.71 204.821 22.71C208.061 22.71 210.851 23.25 213.191 24.33C215.531 25.365 217.331 26.9175 218.591 28.9875C219.851 31.0125 220.481 33.4875 220.481 36.4125V57H212.921L211.976 51.8025H211.706C210.986 52.7925 210.199 53.67 209.344 54.435C208.534 55.2 207.634 55.83 206.644 56.325C205.654 56.82 204.596 57.18 203.471 57.405C202.346 57.675 201.176 57.81 199.961 57.81ZM202.931 50.79C204.191 50.79 205.271 50.5875 206.171 50.1825C207.116 49.7325 207.926 49.1475 208.601 48.4275C209.276 47.7075 209.794 46.875 210.154 45.93C210.559 44.94 210.829 43.9275 210.964 42.8925H203.944C202.549 42.8925 201.401 43.0725 200.501 43.4325C199.646 43.7475 199.016 44.22 198.611 44.85C198.206 45.435 198.004 46.1325 198.004 46.9425C198.004 47.7525 198.206 48.45 198.611 49.035C199.016 49.62 199.601 50.07 200.366 50.385C201.131 50.655 201.986 50.79 202.931 50.79ZM223.857 57V23.52H231.822L232.565 29.1225H232.835C233.87 27.0075 235.31 25.41 237.155 24.33C239 23.25 241.137 22.71 243.567 22.71C245.232 22.71 246.762 22.935 248.157 23.385C249.597 23.835 250.857 24.555 251.937 25.545C253.017 26.49 253.917 27.75 254.637 29.325H254.907C256.167 27.255 257.72 25.635 259.565 24.465C261.455 23.295 263.84 22.71 266.72 22.71C269.285 22.71 271.512 23.3175 273.402 24.5325C275.292 25.7025 276.732 27.435 277.722 29.73C278.757 32.025 279.275 34.86 279.275 38.235V57H270.23V39.045C270.23 36.255 269.69 34.1175 268.61 32.6325C267.53 31.1475 265.842 30.405 263.547 30.405C262.017 30.405 260.712 30.7425 259.632 31.4175C258.552 32.0475 257.697 33.015 257.067 34.32C256.437 35.58 256.122 37.155 256.122 39.045V57H247.077V39.045C247.077 36.255 246.537 34.1175 245.457 32.6325C244.377 31.1475 242.667 30.405 240.327 30.405C238.977 30.405 237.74 30.7875 236.615 31.5525C235.49 32.2725 234.59 33.33 233.915 34.725C233.285 36.075 232.97 37.74 232.97 39.72V57H223.857ZM298.882 57.81C295.642 57.81 292.717 57.0675 290.107 55.5825C287.497 54.0975 285.427 52.0275 283.897 49.3725C282.412 46.7175 281.67 43.68 281.67 40.26C281.67 36.795 282.435 33.7575 283.965 31.1475C285.495 28.4925 287.565 26.4225 290.175 24.9375C292.785 23.4525 295.687 22.71 298.882 22.71C302.122 22.71 305.047 23.4525 307.657 24.9375C310.267 26.4225 312.315 28.4925 313.8 31.1475C315.33 33.7575 316.095 36.795 316.095 40.26C316.095 43.725 315.33 46.785 313.8 49.44C312.27 52.05 310.2 54.0975 307.59 55.5825C305.025 57.0675 302.122 57.81 298.882 57.81ZM298.815 50.115C300.3 50.115 301.627 49.755 302.797 49.035C304.012 48.315 304.98 47.235 305.7 45.795C306.42 44.31 306.78 42.465 306.78 40.26C306.78 38.055 306.42 36.2325 305.7 34.7925C304.98 33.3075 304.012 32.205 302.797 31.485C301.627 30.765 300.345 30.405 298.95 30.405C297.51 30.405 296.182 30.765 294.967 31.485C293.752 32.205 292.785 33.3075 292.065 34.7925C291.345 36.2325 290.985 38.055 290.985 40.26C290.985 42.465 291.345 44.31 292.065 45.795C292.785 47.235 293.73 48.315 294.9 49.035C296.115 49.755 297.42 50.115 298.815 50.115Z" fill="black"/>
<rect x="127.712" y="55.7085" width="3" height="2.3362" transform="rotate(-115.143 127.712 55.7085)" fill="black"/>
<path d="M47.0417 14L66 64L51.9167 64L40 32.0005L47.0417 14Z" fill="black"/>
<path d="M0 64.5H13.5L35 4H21.5L0 64.5Z" fill="black"/>
<path d="M16 64.5H29.5L51 4H37.5L16 64.5Z" fill="black"/>
</svg>
