<svg width="354" height="72" viewBox="0 0 354 72" fill="none" xmlns="http://www.w3.org/2000/svg">
<path d="M92.575 57.81C89.47 57.81 86.68 57.045 84.205 55.515C81.775 53.985 79.8625 51.87 78.4675 49.17C77.0725 46.47 76.375 43.4325 76.375 40.0575C76.375 36.5925 77.0725 33.5325 78.4675 30.8775C79.9075 28.1775 81.865 26.0625 84.34 24.5325C86.86 22.9575 89.6725 22.17 92.7775 22.17C95.2075 22.17 97.345 22.62 99.19 23.52C101.035 24.42 102.52 25.7025 103.645 27.3675V8.4H112.758V57H104.658L103.645 52.3425C102.97 53.2875 102.115 54.1875 101.08 55.0425C100.09 55.8975 98.8975 56.5725 97.5025 57.0675C96.1075 57.5625 94.465 57.81 92.575 57.81ZM94.735 49.845C96.535 49.845 98.11 49.44 99.46 48.63C100.855 47.775 101.935 46.605 102.7 45.12C103.465 43.635 103.848 41.925 103.848 39.99C103.848 38.055 103.465 36.345 102.7 34.86C101.935 33.375 100.855 32.2275 99.46 31.4175C98.11 30.5625 96.535 30.135 94.735 30.135C93.025 30.135 91.4725 30.5625 90.0775 31.4175C88.6825 32.2275 87.58 33.375 86.77 34.86C86.005 36.345 85.6225 38.0325 85.6225 39.9225C85.6225 41.9025 86.005 43.635 86.77 45.12C87.58 46.605 88.66 47.775 90.01 48.63C91.405 49.44 92.98 49.845 94.735 49.845ZM124.318 71.85L132.553 53.22H130.528L116.893 22.98H126.816L136.536 44.9175L145.311 22.98H154.963L133.971 71.85H124.318ZM159.048 57V22.98H167.081L167.756 28.515C168.791 26.625 170.253 25.095 172.143 23.925C174.078 22.755 176.373 22.17 179.028 22.17C181.863 22.17 184.248 22.755 186.183 23.925C188.118 25.095 189.581 26.805 190.571 29.055C191.606 31.305 192.123 34.0725 192.123 37.3575V57H183.078V38.235C183.078 35.535 182.493 33.465 181.323 32.025C180.198 30.585 178.443 29.865 176.058 29.865C174.528 29.865 173.156 30.225 171.941 30.945C170.771 31.665 169.848 32.7 169.173 34.05C168.498 35.355 168.161 36.9525 168.161 38.8425V57H159.048ZM210.496 57.81C207.661 57.81 205.321 57.36 203.476 56.46C201.631 55.515 200.258 54.2775 199.358 52.7475C198.503 51.1725 198.076 49.44 198.076 47.55C198.076 45.48 198.593 43.6575 199.628 42.0825C200.708 40.5075 202.306 39.27 204.421 38.37C206.581 37.47 209.281 37.02 212.521 37.02H220.958C220.958 35.355 220.733 33.9825 220.283 32.9025C219.833 31.7775 219.136 30.945 218.191 30.405C217.246 29.865 215.986 29.595 214.411 29.595C212.701 29.595 211.238 29.9775 210.023 30.7425C208.853 31.4625 208.133 32.5875 207.863 34.1175H199.021C199.246 31.6875 200.033 29.595 201.383 27.84C202.778 26.04 204.601 24.645 206.851 23.655C209.146 22.665 211.688 22.17 214.478 22.17C217.673 22.17 220.441 22.71 222.781 23.79C225.121 24.87 226.921 26.4225 228.181 28.4475C229.441 30.4725 230.071 32.97 230.071 35.94V57H222.376L221.363 51.8025C220.868 52.7025 220.283 53.5125 219.608 54.2325C218.933 54.9525 218.146 55.5825 217.246 56.1225C216.346 56.6625 215.333 57.0675 214.208 57.3375C213.083 57.6525 211.846 57.81 210.496 57.81ZM212.656 50.79C213.826 50.79 214.861 50.5875 215.761 50.1825C216.706 49.7325 217.516 49.1475 218.191 48.4275C218.866 47.6625 219.383 46.8075 219.743 45.8625C220.148 44.8725 220.418 43.815 220.553 42.69V42.6225H213.601C212.206 42.6225 211.058 42.8025 210.158 43.1625C209.303 43.4775 208.673 43.95 208.268 44.58C207.863 45.21 207.661 45.93 207.661 46.74C207.661 47.64 207.863 48.3825 208.268 48.9675C208.673 49.5525 209.258 50.0025 210.023 50.3175C210.788 50.6325 211.666 50.79 212.656 50.79ZM236.884 57V22.98H244.917L245.659 27.5025C246.739 25.8825 248.157 24.6 249.912 23.655C251.712 22.665 253.759 22.17 256.054 22.17C257.764 22.17 259.294 22.395 260.644 22.845C261.994 23.295 263.187 23.9475 264.222 24.8025C265.302 25.6575 266.179 26.7375 266.854 28.0425C268.114 26.1975 269.757 24.7575 271.782 23.7225C273.807 22.6875 276.012 22.17 278.397 22.17C281.367 22.17 283.842 22.7775 285.822 23.9925C287.802 25.1625 289.287 26.8725 290.277 29.1225C291.312 31.3725 291.829 34.14 291.829 37.425V57H282.784V38.235C282.784 35.535 282.244 33.465 281.164 32.025C280.129 30.585 278.509 29.865 276.304 29.865C274.864 29.865 273.582 30.225 272.457 30.945C271.332 31.665 270.454 32.7 269.824 34.05C269.239 35.4 268.947 37.02 268.947 38.91V57H259.834V38.235C259.834 35.535 259.294 33.465 258.214 32.025C257.134 30.585 255.469 29.865 253.219 29.865C251.824 29.865 250.564 30.225 249.439 30.945C248.359 31.665 247.504 32.7 246.874 34.05C246.289 35.4 245.997 37.02 245.997 38.91V57H236.884ZM314.807 57.81C311.567 57.81 308.642 57.0675 306.032 55.5825C303.467 54.0525 301.419 51.96 299.889 49.305C298.404 46.605 297.662 43.5225 297.662 40.0575C297.662 36.5025 298.404 33.3975 299.889 30.7425C301.419 28.0425 303.489 25.95 306.099 24.465C308.709 22.935 311.634 22.17 314.874 22.17C318.159 22.17 321.084 22.935 323.649 24.465C326.259 25.95 328.307 28.0425 329.792 30.7425C331.322 33.3975 332.087 36.48 332.087 39.99C332.087 43.5 331.322 46.605 329.792 49.305C328.307 51.96 326.259 54.0525 323.649 55.5825C321.039 57.0675 318.092 57.81 314.807 57.81ZM314.807 49.9125C316.337 49.9125 317.687 49.5525 318.857 48.8325C320.072 48.1125 321.017 47.01 321.692 45.525C322.412 44.04 322.772 42.195 322.772 39.99C322.772 37.785 322.412 35.9625 321.692 34.5225C321.017 33.0375 320.072 31.935 318.857 31.215C317.687 30.45 316.359 30.0675 314.874 30.0675C313.434 30.0675 312.107 30.45 310.892 31.215C309.677 31.935 308.709 33.0375 307.989 34.5225C307.314 35.9625 306.977 37.785 306.977 39.99C306.977 42.195 307.314 44.04 307.989 45.525C308.709 47.01 309.654 48.1125 310.824 48.8325C312.039 49.5525 313.367 49.9125 314.807 49.9125Z" fill="white"/>
<rect x="127.713" y="55.7085" width="3" height="2.3362" transform="rotate(-115.143 127.713 55.7085)" fill="black"/>
<path d="M47.0417 14L66 64L51.9167 64L40 32.0005L47.0417 14Z" fill="black"/>
<path d="M47.0417 14L66 64L51.9167 64L40 32.0005L47.0417 14Z" fill="url(#paint0_linear_151_3)"/>
<path d="M47.0417 14L66 64L51.9167 64L40 32.0005L47.0417 14Z" stroke="black"/>
<path d="M0 64.5H13.5L35 4H21.5L0 64.5Z" fill="black"/>
<path d="M0 64.5H13.5L35 4H21.5L0 64.5Z" fill="url(#paint1_linear_151_3)"/>
<path d="M0 64.5H13.5L35 4H21.5L0 64.5Z" stroke="black"/>
<path d="M16 64.5H29.5L51 4H37.5L16 64.5Z" fill="black"/>
<path d="M16 64.5H29.5L51 4H37.5L16 64.5Z" fill="url(#paint2_linear_151_3)"/>
<path d="M16 64.5H29.5L51 4H37.5L16 64.5Z" stroke="black"/>
<defs>
<linearGradient id="paint0_linear_151_3" x1="43.5" y1="24.5" x2="58.4906" y2="64.1924" gradientUnits="userSpaceOnUse">
<stop stop-color="#1B94F2"/>
<stop offset="1" stop-color="#92EEFF"/>
</linearGradient>
<linearGradient id="paint1_linear_151_3" x1="17.5" y1="4" x2="17.5" y2="64.5" gradientUnits="userSpaceOnUse">
<stop stop-color="#155DFC"/>
<stop offset="1" stop-color="#00B8DB"/>
</linearGradient>
<linearGradient id="paint2_linear_151_3" x1="33.5" y1="4" x2="33.5" y2="64.5" gradientUnits="userSpaceOnUse">
<stop stop-color="#2B7FFF"/>
<stop offset="1" stop-color="#00B8DB"/>
</linearGradient>
</defs>
</svg>
